<svg width="97" height="96" viewBox="0 0 97 96" fill="none" xmlns="http://www.w3.org/2000/svg">
<path d="M95.6252 64.3371C90.5515 93.9362 12.7611 86.5046 1.18169 56.9588C-4.16266 43.3223 10.3905 1.27345 49.2505 1.14927C69.6848 2.50621 100.504 35.8766 95.6252 64.3371Z" fill="#962DFF"/>
<path d="M95.6252 64.3371C90.5515 93.9362 12.7611 86.5046 1.18169 56.9588C-4.16266 43.3223 10.3905 1.27345 49.2505 1.14927C69.6848 2.50621 100.504 35.8766 95.6252 64.3371Z" fill="url(#paint0_radial_18_12)" fill-opacity="0.1"/>
<path d="M89.386 70.5938C86.8477 94.8519 21.5493 93.4332 10.2027 70.2022C4.9658 59.4802 14.6974 24.5847 47.0976 22.188C64.2165 22.0789 91.8267 47.2688 89.386 70.5938Z" fill="#FF2D2D"/>
<path d="M89.386 70.5938C86.8477 94.8519 21.5493 93.4332 10.2027 70.2022C4.9658 59.4802 14.6974 24.5847 47.0976 22.188C64.2165 22.0789 91.8267 47.2688 89.386 70.5938Z" fill="url(#paint1_radial_18_12)" fill-opacity="0.1"/>
<path d="M72.9984 81.4585C71.6226 96.2212 31.9215 95.8087 24.8644 81.766C21.6074 75.2848 27.2823 54.0067 46.9601 52.3266C57.3649 52.1424 74.3212 67.2637 72.9984 81.4585Z" fill="#F2BF08"/>
<path d="M72.9984 81.4585C71.6226 96.2212 31.9215 95.8087 24.8644 81.766C21.6074 75.2848 27.2823 54.0067 46.9601 52.3266C57.3649 52.1424 74.3212 67.2637 72.9984 81.4585Z" fill="url(#paint2_radial_18_12)" fill-opacity="0.1"/>
<defs>
<radialGradient id="paint0_radial_18_12" cx="0" cy="0" r="1" gradientUnits="userSpaceOnUse" gradientTransform="translate(48.3004 41.9751) rotate(-99.5773) scale(43.9102 51.4584)">
<stop stop-color="#0E1629" stop-opacity="0"/>
<stop offset="1" stop-color="#0E1629"/>
</radialGradient>
<radialGradient id="paint1_radial_18_12" cx="0" cy="0" r="1" gradientUnits="userSpaceOnUse" gradientTransform="translate(48.6404 55.2897) rotate(-103.904) scale(35.66 42.9862)">
<stop stop-color="#0E1629" stop-opacity="0"/>
<stop offset="1" stop-color="#0E1629"/>
</radialGradient>
<radialGradient id="paint2_radial_18_12" cx="0" cy="0" r="1" gradientUnits="userSpaceOnUse" gradientTransform="translate(48.1259 72.4367) rotate(-104.554) scale(21.6771 26.1306)">
<stop stop-color="#0E1629" stop-opacity="0"/>
<stop offset="1" stop-color="#0E1629"/>
</radialGradient>
</defs>
</svg>
